<?xml version="1.0" encoding="UTF-8" standalone="no"?>
<!-- Created with Inkscape (http://www.inkscape.org/) -->
<svg
   xmlns:dc="http://purl.org/dc/elements/1.1/"
   xmlns:cc="http://creativecommons.org/ns#"
   xmlns:rdf="http://www.w3.org/1999/02/22-rdf-syntax-ns#"
   xmlns:svg="http://www.w3.org/2000/svg"
   xmlns="http://www.w3.org/2000/svg"
   xmlns:sodipodi="http://sodipodi.sourceforge.net/DTD/sodipodi-0.dtd"
   xmlns:inkscape="http://www.inkscape.org/namespaces/inkscape"
   width="360"
   height="361.5"
   id="svg2"
   sodipodi:version="0.32"
   inkscape:version="0.46"
   version="1.0"
   sodipodi:docname="airspeed.svg"
   inkscape:output_extension="org.inkscape.output.svg.inkscape"
   style="display:inline">
  <defs
     id="defs4" />
  <sodipodi:namedview
     id="base"
     pagecolor="#ffffff"
     bordercolor="#666666"
     borderopacity="1.0"
     gridtolerance="10000"
     guidetolerance="10"
     objecttolerance="10"
     inkscape:pageopacity="0.0"
     inkscape:pageshadow="2"
     inkscape:zoom="0.7"
     inkscape:cx="31.308981"
     inkscape:cy="76.43807"
     inkscape:document-units="px"
     inkscape:current-layer="layer2"
     showgrid="false"
     showguides="false"
     inkscape:guide-bbox="true"
     inkscape:window-width="1022"
     inkscape:window-height="718"
     inkscape:window-x="0"
     inkscape:window-y="0">
    <sodipodi:guide
       orientation="0,1"
       position="212.85714,182.14286"
       id="guide3226" />
    <sodipodi:guide
       orientation="1,0"
       position="179.99656,360.65603"
       id="guide3228" />
  </sodipodi:namedview>
  <metadata
     id="metadata7">
    <rdf:RDF>
      <cc:Work
         rdf:about="">
        <dc:format>image/svg+xml</dc:format>
        <dc:type
           rdf:resource="http://purl.org/dc/dcmitype/StillImage" />
      </cc:Work>
    </rdf:RDF>
  </metadata>
  <g
     inkscape:groupmode="layer"
     id="layer2"
     inkscape:label="v"
     style="display:inline">
    <path
       sodipodi:type="arc"
       style="opacity:1;fill:#000000;fill-opacity:1;fill-rule:evenodd;stroke:none;stroke-width:0.82591093;stroke-linecap:butt;stroke-linejoin:miter;stroke-miterlimit:4;stroke-dasharray:none;stroke-dashoffset:0;stroke-opacity:1"
       id="path2454"
       sodipodi:cx="180"
       sodipodi:cy="177.21428"
       sodipodi:rx="145.71428"
       sodipodi:ry="145.71428"
       d="M 325.71428,177.21428 A 145.71428,145.71428 0 1 1 34.285721,177.21428 A 145.71428,145.71428 0 1 1 325.71428,177.21428 z"
       transform="matrix(1.2107843,0,0,1.2107843,-37.941178,-35.211135)" />
    <path
       style="opacity:1;fill:#fbe90a;fill-opacity:1;fill-rule:evenodd;stroke:none;stroke-width:1;stroke-linecap:butt;stroke-linejoin:miter;stroke-miterlimit:4;stroke-dasharray:none;stroke-dashoffset:0;stroke-opacity:1"
       d="M 21.75,133.15625 C 17.472202,147.81695 15.1875,163.30739 15.1875,179.34375 C 15.1875,228.46887 36.712625,272.60925 70.84375,302.8125 L 85.0625,287.71875 C 54.939126,261.30026 35.90625,222.52851 35.90625,179.34375 C 35.90625,165.28086 37.925855,151.6959 41.6875,138.84375 L 21.75,133.15625 z"
       id="path4110" />
    <path
       style="opacity:1;fill:#01873c;fill-opacity:1;fill-rule:evenodd;stroke:none;stroke-width:1;stroke-linecap:butt;stroke-linejoin:miter;stroke-miterlimit:4;stroke-dasharray:none;stroke-dashoffset:0;stroke-opacity:1"
       d="M 315.28125,85.25 L 298.34375,97.1875 C 314.5704,120.50372 324.09375,148.80406 324.09375,179.34375 C 324.09374,258.88896 259.54523,323.46875 180,323.46875 C 143.70266,323.46876 110.53382,310.01846 85.1875,287.84375 L 71.71875,303.59375 C 100.68513,328.86428 138.56978,344.15625 180,344.15625 C 270.97612,344.15625 344.81251,270.31985 344.8125,179.34375 C 344.8125,144.36414 333.88951,111.9391 315.28125,85.25 z"
       id="path4105" />
    <path
       style="opacity:1;fill:none;fill-opacity:1;fill-rule:evenodd;stroke:#ffffff;stroke-width:2;stroke-linecap:butt;stroke-linejoin:miter;stroke-miterlimit:4;stroke-dasharray:none;stroke-dashoffset:0;stroke-opacity:1"
       d="M 23.199684,131.8597 C 43.574097,64.579449 106.09677,15.555478 180,15.555478 C 235.40566,15.555478 284.41478,43.109801 314.06252,85.253616"
       id="path4172"
       sodipodi:nodetypes="css" />
    <path
       style="fill:#ffffff;fill-opacity:1;fill-rule:evenodd;stroke:none;stroke-width:1;stroke-linecap:butt;stroke-linejoin:miter;stroke-miterlimit:4;stroke-dasharray:none;stroke-dashoffset:0;stroke-opacity:1"
       d="M 200.75317,184.72362 L 189.56567,197.84862 L 210.67281,215.06737 C 217.20112,220.81942 269.06795,255.89229 277.20406,255.72362 C 277.94196,248.38362 231.07084,208.79077 222.76656,202.69237 L 200.75317,184.72362 z"
       id="path4087"
       sodipodi:nodetypes="cccccc" />
    <path
       style="fill:none;fill-opacity:1;fill-rule:evenodd;stroke:#ffffff;stroke-width:2;stroke-linecap:butt;stroke-linejoin:miter;stroke-miterlimit:4;stroke-dasharray:none;stroke-dashoffset:0;stroke-opacity:1"
       d="M 277.20406,255.72362 C 277.94196,248.38362 231.07084,208.79077 222.76656,202.69237 L 192.87817,178.28612 C 192.33434,171.67609 186.81523,166.47362 180.06567,166.47362 C 179.56688,166.47362 179.081,166.5121 178.59692,166.56737 L 158.81567,150.37987 C 158.09692,143.94959 152.65553,138.94237 146.03442,138.94237 C 138.92497,138.94237 133.15943,144.70792 133.15942,151.81737 C 133.15942,158.92682 138.92496,164.72363 146.03442,164.72362 C 146.95791,164.72362 147.85334,164.59613 148.72192,164.41112 L 167.19067,179.53612 C 167.29221,186.55824 173.01955,192.22362 180.06567,192.22362 C 180.87853,192.22362 181.66946,192.1491 182.44067,192.00487 L 210.67281,215.06737 C 217.20112,220.81942 269.06795,255.89229 277.20406,255.72362 z"
       id="path4067"
       sodipodi:nodetypes="cccscccssccsccc" />
    <path
       sodipodi:type="arc"
       style="fill:#ffffff;fill-opacity:1;fill-rule:evenodd;stroke:none;stroke-width:7.28571415;stroke-linecap:butt;stroke-linejoin:miter;stroke-miterlimit:4;stroke-dasharray:none;stroke-dashoffset:0;stroke-opacity:1"
       id="path4071"
       sodipodi:cx="145.20943"
       sodipodi:cy="141.28674"
       sodipodi:rx="12.879445"
       sodipodi:ry="12.879445"
       d="M 158.08887,141.28674 A 12.879445,12.879445 0 1 1 132.32998,141.28674 A 12.879445,12.879445 0 1 1 158.08887,141.28674 z"
       transform="matrix(0.1372549,0,0,0.1372549,160.12899,159.96484)" />
    <path
       style="opacity:1;fill:none;fill-opacity:1;fill-rule:evenodd;stroke:#ff0101;stroke-width:6;stroke-linecap:butt;stroke-linejoin:miter;stroke-miterlimit:4;stroke-dasharray:none;stroke-dashoffset:0;stroke-opacity:1"
       d="M 55.417336,143.11799 L 21.668419,133.35968"
       id="path4097"
       sodipodi:nodetypes="cc" />
    <path
       id="path3969"
       style="opacity:1;fill:none;fill-opacity:1;fill-rule:evenodd;stroke:#ffffff;stroke-width:3;stroke-linecap:butt;stroke-linejoin:miter;stroke-miterlimit:4;stroke-dasharray:none;stroke-dashoffset:0;stroke-opacity:1"
       d="M 118.36352,58.368381 L 105.24253,32.61121 M 89.134263,78.519196 L 69.81794,57.082161 M 65.743311,106.02868 L 41.39706,90.403099 M 51.765515,134.72954 L 24.483934,125.23486 M 45.213563,162.78514 L 16.524963,159.25778 M 45.805162,199.78997 L 17.24279,204.13905 M 56.611281,236.0489 L 30.361107,248.11005 M 77.877236,268.7861 L 56.136684,287.82495 M 106.12179,293.32326 L 90.426453,317.53635 M 139.10555,308.95007 L 130.40086,336.5372 M 177.2499,315.09977 L 176.66502,344.00461 M 217.52801,309.87693 L 225.51683,337.65897 M 255.48229,292.30613 L 271.54257,316.33707 M 285.87883,264.4009 L 308.40753,282.49576 M 306.02698,229.99436 L 332.84082,240.76778 M 315.21469,192.42444 L 344.02621,195.20874 M 313.18589,152.38208 L 341.53342,146.64081 M 301.19667,118.19072 L 327.01395,105.16144 M 280.70183,88.379086 L 302.13092,69.019852 M 260.3319,69.964336 L 277.42905,46.683105 M 218.44464,49.092738 L 226.63594,21.340128 M 237.67357,56.466833 L 249.95265,30.30423 M 253.32758,55.465837 L 263.85568,37.67881 M 275.53866,71.680673 L 289.26334,56.212891 M 298.17423,97.083652 L 315.17889,85.245262 M 315.63368,131.09122 L 335.13547,124.15159 M 323.63023,169.95812 L 344.28714,168.60638 M 319.98008,213.07784 L 340.07666,217.91891 M 304.72084,251.30215 L 322.63458,261.63538 M 278.69577,284.13223 L 292.88443,299.19434 M 242.37332,309.08753 L 251.34225,327.741 M 200.86441,321.76998 L 203.86768,342.26581 M 157.01235,321.48106 L 153.71191,341.88947 M 85.079104,287.56502 L 71.425858,303.13 M 59.266906,257.82405 L 41.898205,269.11264 M 41.814191,219.9997 L 21.940926,225.84488 M 35.915201,179.35715 L 15.198234,179.35715 M 51.010603,115.46724 L 32.476734,106.28696 M 69.666848,86.779219 L 53.814339,73.477341 M 97.730385,61.163375 L 85.919365,44.194202 M 131.30369,43.913451 L 124.29464,24.417149 M 117.22329,308.90424 L 108.19825,327.52948 M 142.71555,18.642857 L 149.31314,47.084349 M 230.89946,44.555403 L 238.14346,25.37174" />
    <path
       style="opacity:1;fill:#ffffff;fill-opacity:1;fill-rule:evenodd;stroke:none;stroke-width:0.99999976;stroke-linecap:butt;stroke-linejoin:miter;stroke-miterlimit:4;stroke-dasharray:none;stroke-dashoffset:0;stroke-opacity:1"
       d="M 286.84375,82.6875 L 275.90625,92.59375 C 296.68186,115.54419 309.34375,145.97198 309.34375,179.34375 C 309.34375,196.28143 306.08449,212.48298 300.15625,227.3125 L 313.84375,232.78125 C 320.44926,216.25847 324.09375,198.21558 324.09375,179.34375 C 324.09375,142.16058 309.99338,108.25799 286.84375,82.6875 z"
       id="path4099" />
    <g
       id="g4188">
      <path
         id="text4126"
         d="M 90.349514,117.30066 L 90.349514,120.24773 L 73.842507,120.24773 C 73.819793,119.50954 73.939038,118.79974 74.200244,118.11834 C 74.620441,116.99403 75.290488,115.88675 76.210385,114.7965 C 77.141633,113.70626 78.481726,112.44566 80.230668,111.0147 C 82.944916,108.7888 84.779026,107.02851 85.733003,105.73383 C 86.686955,104.42782 87.163937,103.19561 87.163951,102.03721 C 87.163937,100.82206 86.726703,99.799954 85.852249,98.970893 C 84.989125,98.130517 83.859132,97.710318 82.462265,97.710296 C 80.985882,97.710318 79.804783,98.15323 78.918965,99.039033 C 78.033135,99.924878 77.584545,101.1514 77.573193,102.71861 L 74.4217,102.39495 C 74.637476,100.04412 75.449482,98.255441 76.857719,97.028892 C 78.265948,95.791033 80.156842,95.172092 82.530406,95.172067 C 84.926663,95.172092 86.823235,95.83646 88.220127,97.165173 C 89.616988,98.493932 90.315426,100.14066 90.315444,102.10535 C 90.315426,103.10476 90.111005,104.08712 89.702181,105.05242 C 89.293322,106.01776 88.611919,107.03418 87.657969,108.1017 C 86.715347,109.16925 85.142441,110.63426 82.939248,112.49676 C 81.099449,114.04128 79.91835,115.09178 79.395948,115.64825 C 78.873532,116.19338 78.441977,116.74418 78.101281,117.30066 L 90.349514,117.30066 M 109.76952,117.30066 L 109.76952,120.24773 L 93.262515,120.24773 C 93.2398,119.50954 93.359046,118.79974 93.620252,118.11834 C 94.040449,116.99403 94.710495,115.88675 95.630393,114.7965 C 96.56164,113.70626 97.901733,112.44566 99.650675,111.0147 C 102.36492,108.7888 104.19903,107.02851 105.15301,105.73383 C 106.10696,104.42782 106.58394,103.19561 106.58396,102.03721 C 106.58394,100.82206 106.14671,99.799954 105.27226,98.970893 C 104.40913,98.130517 103.27914,97.710318 101.88227,97.710296 C 100.40589,97.710318 99.224791,98.15323 98.338973,99.039033 C 97.453143,99.924878 97.004553,101.1514 96.993201,102.71861 L 93.841708,102.39495 C 94.057484,100.04412 94.869489,98.255441 96.277727,97.028892 C 97.685956,95.791033 99.576849,95.172092 101.95041,95.172067 C 104.34667,95.172092 106.24324,95.83646 107.64013,97.165173 C 109.037,98.493932 109.73543,100.14066 109.73545,102.10535 C 109.73543,103.10476 109.53101,104.08712 109.12219,105.05242 C 108.71333,106.01776 108.03193,107.03418 107.07798,108.1017 C 106.13535,109.16925 104.56245,110.63426 102.35926,112.49676 C 100.51946,114.04128 99.338358,115.09178 98.815956,115.64825 C 98.29354,116.19338 97.861985,116.74418 97.521289,117.30066 L 109.76952,117.30066 M 113.07433,107.93135 C 113.07433,104.97862 113.37528,102.60506 113.97719,100.81068 C 114.59045,99.004984 115.49331,97.613786 116.68577,96.637085 C 117.88958,95.660431 119.40002,95.172092 121.21711,95.172067 C 122.55719,95.172092 123.73261,95.444653 124.74337,95.989751 C 125.7541,96.523541 126.58882,97.301476 127.24753,98.323559 C 127.9062,99.334329 128.42293,100.57221 128.79772,102.03721 C 129.17248,103.49089 129.35986,105.4556 129.35988,107.93135 C 129.35986,110.8614 129.05891,113.22927 128.45702,115.03499 C 127.8551,116.82935 126.95224,118.22055 125.74844,119.20859 C 124.55597,120.18526 123.04553,120.6736 121.21711,120.6736 C 118.80947,120.6736 116.91858,119.81049 115.54442,118.08427 C 113.89769,116.00599 113.07433,112.62169 113.07433,107.93135 M 116.22582,107.93135 C 116.22582,112.03114 116.7028,114.76243 117.65677,116.12523 C 118.62209,117.47669 119.80886,118.15241 121.21711,118.15241 C 122.62533,118.15241 123.80643,117.47101 124.7604,116.1082 C 125.72571,114.7454 126.20837,112.01978 126.20839,107.93135 C 126.20837,103.82023 125.72571,101.08894 124.7604,99.737472 C 123.80643,98.386043 122.61397,97.710318 121.18303,97.710296 C 119.77479,97.710318 118.65048,98.306546 117.81009,99.498981 C 116.75391,101.0208 116.22582,103.83159 116.22582,107.93135"
         style="font-size:34.8878746px;font-style:normal;font-variant:normal;font-weight:normal;font-stretch:normal;fill:#ffffff;fill-opacity:1;stroke:none;stroke-width:1px;stroke-linecap:butt;stroke-linejoin:miter;stroke-opacity:1;font-family:Arial;-inkscape-font-specification:Arial"
         transform="scale(0.9370289,1.067203)" />
      <path
         id="text4130"
         d="M 75.10376,165.78506 L 75.10376,168.73213 L 58.596753,168.73213 C 58.574038,167.99395 58.693284,167.28415 58.95449,166.60275 C 59.374687,165.47843 60.044733,164.37115 60.964631,163.2809 C 61.895879,162.19066 63.235971,160.93007 64.984913,159.49911 C 67.699162,157.2732 69.533272,155.51291 70.487249,154.21823 C 71.441201,152.91222 71.918183,151.68002 71.918197,150.52162 C 71.918183,149.30646 71.480949,148.28436 70.606495,147.4553 C 69.743371,146.61492 68.613378,146.19472 67.216511,146.1947 C 65.740128,146.19472 64.559029,146.63764 63.673211,147.52344 C 62.787381,148.40928 62.338791,149.63581 62.327439,151.20302 L 59.175946,150.87935 C 59.391722,148.52853 60.203727,146.73985 61.611965,145.5133 C 63.020194,144.27544 64.911087,143.6565 67.284651,143.65647 C 69.680909,143.6565 71.577481,144.32087 72.974373,145.64958 C 74.371234,146.97834 75.069672,148.62506 75.06969,150.58976 C 75.069672,151.58917 74.865251,152.57152 74.456426,153.53683 C 74.047568,154.50216 73.366164,155.51859 72.412215,156.58611 C 71.469592,157.65365 69.896687,159.11867 67.693494,160.98116 C 65.853695,162.52569 64.672596,163.57618 64.150194,164.13266 C 63.627778,164.67778 63.196223,165.22858 62.855527,165.78506 L 75.10376,165.78506 M 78.408568,156.41576 C 78.408566,153.46302 78.709519,151.08947 79.311428,149.29509 C 79.924688,147.48939 80.827547,146.09819 82.020008,145.12149 C 83.223815,144.14484 84.734259,143.6565 86.551343,143.65647 C 87.891426,143.6565 89.066847,143.92906 90.077608,144.47416 C 91.088343,145.00795 91.923061,145.78588 92.581767,146.80796 C 93.240441,147.81873 93.757172,149.05662 94.13196,150.52162 C 94.506715,151.97529 94.694101,153.94001 94.694119,156.41576 C 94.694101,159.3458 94.393148,161.71368 93.791259,163.51939 C 93.189336,165.31376 92.286476,166.70496 91.082678,167.69299 C 89.890209,168.66967 88.379765,169.15801 86.551343,169.15801 C 84.143709,169.15801 82.252816,168.2949 80.878656,166.56867 C 79.231928,164.4904 78.408566,161.1061 78.408568,156.41576 M 81.56006,156.41576 C 81.560056,160.51555 82.037038,163.24684 82.991008,164.60964 C 83.956323,165.96109 85.1431,166.63682 86.551343,166.63682 C 87.959567,166.63682 89.140665,165.95541 90.094643,164.5926 C 91.059951,163.2298 91.542611,160.50419 91.542626,156.41576 C 91.542611,152.30464 91.059951,149.57335 90.094643,148.22188 C 89.140665,146.87045 87.94821,146.19472 86.517273,146.1947 C 85.10903,146.19472 83.984715,146.79095 83.144324,147.98339 C 82.088143,149.50521 81.560056,152.316 81.56006,156.41576 M 97.828575,156.41576 C 97.828574,153.46302 98.129527,151.08947 98.731435,149.29509 C 99.344696,147.48939 100.24756,146.09819 101.44002,145.12149 C 102.64382,144.14484 104.15427,143.6565 105.97135,143.65647 C 107.31143,143.6565 108.48685,143.92906 109.49762,144.47416 C 110.50835,145.00795 111.34307,145.78588 112.00177,146.80796 C 112.66045,147.81873 113.17718,149.05662 113.55197,150.52162 C 113.92672,151.97529 114.11411,153.94001 114.11413,156.41576 C 114.11411,159.3458 113.81316,161.71368 113.21127,163.51939 C 112.60934,165.31376 111.70648,166.70496 110.50269,167.69299 C 109.31022,168.66967 107.79977,169.15801 105.97135,169.15801 C 103.56372,169.15801 101.67282,168.2949 100.29866,166.56867 C 98.651936,164.4904 97.828574,161.1061 97.828575,156.41576 M 100.98007,156.41576 C 100.98006,160.51555 101.45705,163.24684 102.41102,164.60964 C 103.37633,165.96109 104.56311,166.63682 105.97135,166.63682 C 107.37957,166.63682 108.56067,165.95541 109.51465,164.5926 C 110.47996,163.2298 110.96262,160.50419 110.96263,156.41576 C 110.96262,152.30464 110.47996,149.57335 109.51465,148.22188 C 108.56067,146.87045 107.36822,146.19472 105.93728,146.1947 C 104.52904,146.19472 103.40472,146.79095 102.56433,147.98339 C 101.50815,149.50521 100.98006,152.316 100.98007,156.41576"
         style="font-size:34.8878746px;font-style:normal;font-variant:normal;font-weight:normal;font-stretch:normal;fill:#ffffff;fill-opacity:1;stroke:none;stroke-width:1px;stroke-linecap:butt;stroke-linejoin:miter;stroke-opacity:1;font-family:Arial;-inkscape-font-specification:Arial"
         transform="scale(0.9370289,1.067203)" />
      <path
         id="text4134"
         d="M 73.968652,223.94991 L 70.902335,223.94991 L 70.902335,204.41065 C 70.164139,205.11479 69.193139,205.8189 67.989334,206.523 C 66.796871,207.22714 65.723662,207.75522 64.769701,208.10727 L 64.769701,205.14316 C 66.484562,204.33685 67.983649,203.36017 69.266966,202.21312 C 70.550267,201.06612 71.458804,199.95316 71.992581,198.87425 L 73.968652,198.87425 L 73.968652,223.94991 M 86.557587,210.407 C 85.285628,209.94139 84.343021,209.27702 83.729761,208.4139 C 83.116495,207.5508 82.809864,206.51734 82.809866,205.31351 C 82.809864,203.49646 83.462875,201.96898 84.768902,200.73107 C 86.07492,199.49321 87.812498,198.87427 89.981641,198.87425 C 92.162121,198.87427 93.916734,199.51025 95.245485,200.78218 C 96.574207,202.0428 97.238575,203.58163 97.238591,205.39869 C 97.238575,206.55709 96.931943,207.56784 96.318696,208.43093 C 95.716774,209.2827 94.79688,209.94139 93.559011,210.407 C 95.092155,210.90671 96.256218,211.71304 97.051205,212.82599 C 97.857516,213.93896 98.260679,215.26769 98.260697,216.8122 C 98.260679,218.94727 97.505458,220.74163 95.99503,222.19529 C 94.48457,223.64895 92.497145,224.37578 90.032746,224.37578 C 87.568329,224.37578 85.580903,223.64895 84.070463,222.19529 C 82.560016,220.73028 81.804794,218.90752 81.804795,216.72703 C 81.804794,215.10302 82.213636,213.74589 83.031322,212.65564 C 83.86036,211.55405 85.03578,210.8045 86.557587,210.407 M 85.944323,205.2113 C 85.944318,206.39242 86.324768,207.35774 87.085675,208.10727 C 87.846568,208.85683 88.834603,209.2316 90.049781,209.23158 C 91.23087,209.2316 92.196192,208.8625 92.945748,208.1243 C 93.706635,207.37477 94.087085,206.46056 94.087099,205.38165 C 94.087085,204.25736 93.695278,203.31475 92.911677,202.55383 C 92.139408,201.78159 91.174087,201.39546 90.015711,201.39544 C 88.84596,201.39546 87.87496,201.77023 87.10271,202.51976 C 86.330446,203.26932 85.944318,204.1665 85.944323,205.2113 M 84.956288,216.74406 C 84.956283,217.61853 85.160704,218.46461 85.569551,219.28229 C 85.989745,220.09998 86.608686,220.73595 87.426377,221.19022 C 88.244053,221.63313 89.124199,221.85459 90.066816,221.85459 C 91.531823,221.85459 92.741314,221.38329 93.695292,220.44068 C 94.649243,219.49807 95.126225,218.29994 95.12624,216.84627 C 95.126225,215.3699 94.632208,214.14906 93.644186,213.18373 C 92.667495,212.21842 91.44097,211.73575 89.964606,211.73574 C 88.522293,211.73575 87.324159,212.21274 86.370201,213.16669 C 85.427587,214.12067 84.956283,215.31312 84.956288,216.74406 M 101.32702,211.63353 C 101.32701,208.6808 101.62797,206.30724 102.22988,204.51286 C 102.84314,202.70716 103.74599,201.31597 104.93846,200.33926 C 106.14226,199.36261 107.65271,198.87427 109.46979,198.87425 C 110.80987,198.87427 111.98529,199.14683 112.99606,199.69193 C 114.00679,200.22572 114.84151,201.00366 115.50021,202.02574 C 116.15889,203.03651 116.67562,204.27439 117.05041,205.73939 C 117.42516,207.19307 117.61255,209.15778 117.61257,211.63353 C 117.61255,214.56358 117.3116,216.93145 116.70971,218.73717 C 116.10778,220.53153 115.20492,221.92273 114.00113,222.91076 C 112.80866,223.88744 111.29821,224.37578 109.46979,224.37578 C 107.06216,224.37578 105.17126,223.51267 103.7971,221.78645 C 102.15038,219.70817 101.32701,216.32387 101.32702,211.63353 M 104.47851,211.63353 C 104.4785,215.73332 104.95549,218.46461 105.90946,219.82741 C 106.87477,221.17887 108.06155,221.85459 109.46979,221.85459 C 110.87801,221.85459 112.05911,221.17319 113.01309,219.81038 C 113.9784,218.44758 114.46106,215.72196 114.46107,211.63353 C 114.46106,207.52241 113.9784,204.79112 113.01309,203.43965 C 112.05911,202.08822 110.86666,201.4125 109.43572,201.41247 C 108.02748,201.4125 106.90316,202.00872 106.06277,203.20116 C 105.00659,204.72298 104.4785,207.53377 104.47851,211.63353"
         style="font-size:34.8878746px;font-style:normal;font-variant:normal;font-weight:normal;font-stretch:normal;fill:#ffffff;fill-opacity:1;stroke:none;stroke-width:1px;stroke-linecap:butt;stroke-linejoin:miter;stroke-opacity:1;font-family:Arial;-inkscape-font-specification:Arial"
         transform="scale(0.9370289,1.067203)" />
      <path
         id="text4138"
         d="M 110.93961,264.44293 L 107.87329,264.44293 L 107.87329,244.90368 C 107.1351,245.60781 106.1641,246.31193 104.96029,247.01603 C 103.76783,247.72016 102.69462,248.24825 101.74066,248.60029 L 101.74066,245.63619 C 103.45552,244.82988 104.95461,243.8532 106.23792,242.70615 C 107.52123,241.55914 108.42976,240.44619 108.96354,239.36727 L 110.93961,239.36727 L 110.93961,264.44293 M 134.7206,245.58508 L 131.67132,245.82357 C 131.39875,244.61978 131.01262,243.74531 130.51293,243.20017 C 129.68388,242.32572 128.66178,241.88849 127.44662,241.88847 C 126.46993,241.88849 125.6125,242.16105 124.87432,242.70615 C 123.90899,243.41029 123.14809,244.43807 122.59162,245.7895 C 122.03513,247.14097 121.74553,249.06594 121.72283,251.5644 C 122.46101,250.4401 123.36387,249.60538 124.43141,249.06024 C 125.49893,248.51513 126.61757,248.24257 127.78732,248.24256 C 129.83152,248.24257 131.5691,248.99779 133.00006,250.50822 C 134.44235,252.00733 135.1635,253.94932 135.16352,256.33423 C 135.1635,257.90146 134.8228,259.3608 134.14141,260.71225 C 133.47135,262.05234 132.54577,263.08013 131.36469,263.7956 C 130.18358,264.51107 128.84348,264.86881 127.34441,264.86881 C 124.78914,264.86881 122.70518,263.93188 121.09253,262.05802 C 119.47987,260.17281 118.67354,257.07242 118.67354,252.75686 C 118.67354,247.93026 119.56504,244.42104 121.34805,242.22917 C 122.90392,240.32126 124.99923,239.3673 127.634,239.36727 C 129.59871,239.3673 131.20568,239.9181 132.45494,241.01968 C 133.71552,242.1213 134.47074,243.6431 134.7206,245.58508 M 122.19981,256.35126 C 122.1998,257.40744 122.42126,258.41819 122.86418,259.38351 C 123.31844,260.34884 123.94874,261.08702 124.75507,261.59807 C 125.56139,262.09777 126.40747,262.34762 127.2933,262.34762 C 128.58796,262.34762 129.70092,261.82521 130.63218,260.78039 C 131.56342,259.73557 132.02904,258.31598 132.02906,256.52161 C 132.02904,254.7954 131.5691,253.43827 130.64922,252.45023 C 129.72931,251.45085 128.57092,250.95115 127.17406,250.95114 C 125.78853,250.95115 124.61311,251.45085 123.64779,252.45023 C 122.68246,253.43827 122.1998,254.73862 122.19981,256.35126 M 138.22983,252.12656 C 138.22983,249.17382 138.53078,246.80027 139.13269,245.00589 C 139.74595,243.20019 140.64881,241.80899 141.84127,240.83229 C 143.04508,239.85564 144.55552,239.3673 146.37261,239.36727 C 147.71269,239.3673 148.88811,239.63986 149.89887,240.18496 C 150.90961,240.71875 151.74433,241.49668 152.40303,242.51876 C 153.06171,243.52953 153.57844,244.76742 153.95322,246.23242 C 154.32798,247.68609 154.51537,249.65081 154.51538,252.12656 C 154.51537,255.0566 154.21441,257.42448 153.61252,259.23019 C 153.0106,261.02456 152.10774,262.41576 150.90394,263.40379 C 149.71147,264.38047 148.20103,264.86881 146.37261,264.86881 C 143.96497,264.86881 142.07408,264.0057 140.69992,262.27948 C 139.05319,260.2012 138.22983,256.8169 138.22983,252.12656 M 141.38132,252.12656 C 141.38132,256.22635 141.8583,258.95764 142.81227,260.32044 C 143.77759,261.67189 144.96436,262.34762 146.37261,262.34762 C 147.78083,262.34762 148.96193,261.66621 149.91591,260.3034 C 150.88122,258.9406 151.36388,256.21499 151.36389,252.12656 C 151.36388,248.01544 150.88122,245.28415 149.91591,243.93268 C 148.96193,242.58125 147.76947,241.90552 146.33854,241.9055 C 144.93029,241.90552 143.80598,242.50175 142.96559,243.69419 C 141.90941,245.21601 141.38132,248.0268 141.38132,252.12656"
         style="font-size:34.8878746px;font-style:normal;font-variant:normal;font-weight:normal;font-stretch:normal;fill:#ffffff;fill-opacity:1;stroke:none;stroke-width:1px;stroke-linecap:butt;stroke-linejoin:miter;stroke-opacity:1;font-family:Arial;-inkscape-font-specification:Arial"
         transform="scale(0.9370289,1.067203)" />
      <path
         id="text4142"
         d="M 177.25866,278.83304 L 174.19234,278.83304 L 174.19234,259.29378 C 173.45414,259.99792 172.48314,260.70204 171.27934,261.40614 C 170.08688,262.11027 169.01367,262.63836 168.05971,262.9904 L 168.05971,260.02629 C 169.77457,259.21999 171.27365,258.24331 172.55697,257.09626 C 173.84027,255.94925 174.74881,254.83629 175.28259,253.75738 L 177.25866,253.75738 L 177.25866,278.83304 M 194.95812,278.83304 L 194.95812,272.85372 L 184.1238,272.85372 L 184.1238,270.04293 L 195.52028,253.85959 L 198.02444,253.85959 L 198.02444,270.04293 L 201.39739,270.04293 L 201.39739,272.85372 L 198.02444,272.85372 L 198.02444,278.83304 L 194.95812,278.83304 M 194.95812,270.04293 L 194.95812,258.78273 L 187.13901,270.04293 L 194.95812,270.04293 M 204.54888,266.51666 C 204.54888,263.56393 204.84983,261.19038 205.45174,259.39599 C 206.065,257.5903 206.96786,256.1991 208.16032,255.2224 C 209.36413,254.24574 210.87457,253.7574 212.69165,253.75738 C 214.03174,253.7574 215.20716,254.02996 216.21792,254.57506 C 217.22865,255.10885 218.06337,255.88679 218.72208,256.90887 C 219.38075,257.91964 219.89748,259.15752 220.27227,260.62252 C 220.64703,262.0762 220.83441,264.04091 220.83443,266.51666 C 220.83441,269.44671 220.53346,271.81459 219.93157,273.6203 C 219.32965,275.41467 218.42679,276.80586 217.22299,277.7939 C 216.03052,278.77058 214.52008,279.25892 212.69165,279.25892 C 210.28402,279.25892 208.39313,278.3958 207.01897,276.66958 C 205.37224,274.5913 204.54888,271.207 204.54888,266.51666 M 207.70037,266.51666 C 207.70037,270.61645 208.17735,273.34774 209.13132,274.71055 C 210.09663,276.062 211.28341,276.73772 212.69165,276.73772 C 214.09988,276.73772 215.28098,276.05632 216.23495,274.69351 C 217.20026,273.33071 217.68292,270.6051 217.68294,266.51666 C 217.68292,262.40554 217.20026,259.67425 216.23495,258.32278 C 215.28098,256.97135 214.08852,256.29563 212.65758,256.29561 C 211.24934,256.29563 210.12503,256.89186 209.28463,258.08429 C 208.22845,259.60611 207.70037,262.4169 207.70037,266.51666"
         style="font-size:34.8878746px;font-style:normal;font-variant:normal;font-weight:normal;font-stretch:normal;fill:#ffffff;fill-opacity:1;stroke:none;stroke-width:1px;stroke-linecap:butt;stroke-linejoin:miter;stroke-opacity:1;font-family:Arial;-inkscape-font-specification:Arial"
         transform="scale(0.9370289,1.067203)" />
      <path
         id="text4146"
         d="M 243.5777,263.10434 L 240.51139,263.10434 L 240.51139,243.56509 C 239.77319,244.26922 238.80219,244.97334 237.59838,245.67744 C 236.40592,246.38157 235.33271,246.90966 234.37875,247.2617 L 234.37875,244.29759 C 236.09361,243.49129 237.5927,242.51461 238.87602,241.36756 C 240.15932,240.22055 241.06786,239.10759 241.60163,238.02868 L 243.5777,238.02868 L 243.5777,263.10434 M 267.56312,260.15727 L 267.56312,263.10434 L 251.05611,263.10434 C 251.03339,262.36615 251.15264,261.65636 251.41385,260.97495 C 251.83404,259.85064 252.50409,258.74336 253.42399,257.65311 C 254.35523,256.56287 255.69533,255.30227 257.44427,253.87132 C 260.15852,251.64541 261.99263,249.88512 262.94661,248.59044 C 263.90056,247.28443 264.37754,246.05223 264.37755,244.89382 C 264.37754,243.67867 263.94031,242.65657 263.06585,241.82751 C 262.20273,240.98713 261.07273,240.56693 259.67587,240.56691 C 258.19948,240.56693 257.01839,241.00984 256.13257,241.89565 C 255.24674,242.78149 254.79815,244.00802 254.78679,245.57523 L 251.6353,245.25156 C 251.85108,242.90074 252.66308,241.11205 254.07132,239.88551 C 255.47955,238.64765 257.37044,238.0287 259.74401,238.02868 C 262.14027,238.0287 264.03684,238.69307 265.43373,240.02179 C 266.83059,241.35055 267.52903,242.99727 267.52905,244.96196 C 267.52903,245.96137 267.32461,246.94373 266.91578,247.90903 C 266.50692,248.87437 265.82552,249.8908 264.87157,250.95832 C 263.92895,252.02586 262.35604,253.49088 260.15285,255.35337 C 258.31305,256.89789 257.13195,257.94839 256.60955,258.50486 C 256.08713,259.04999 255.65558,259.60079 255.31488,260.15727 L 267.56312,260.15727 M 270.86792,250.78797 C 270.86792,247.83523 271.16888,245.46168 271.77078,243.6673 C 272.38404,241.8616 273.2869,240.4704 274.47936,239.4937 C 275.68317,238.51704 277.19361,238.0287 279.0107,238.02868 C 280.35078,238.0287 281.5262,238.30127 282.53696,238.84636 C 283.5477,239.38015 284.38242,240.15809 285.04112,241.18017 C 285.6998,242.19094 286.21653,243.42882 286.59132,244.89382 C 286.96607,246.3475 287.15346,248.31221 287.15347,250.78797 C 287.15346,253.71801 286.8525,256.08589 286.25061,257.8916 C 285.64869,259.68597 284.74583,261.07717 283.54203,262.0652 C 282.34957,263.04188 280.83912,263.53022 279.0107,263.53022 C 276.60307,263.53022 274.71217,262.66711 273.33801,260.94088 C 271.69128,258.86261 270.86792,255.4783 270.86792,250.78797 M 274.01942,250.78797 C 274.01941,254.88775 274.49639,257.61904 275.45036,258.98185 C 276.41568,260.3333 277.60246,261.00903 279.0107,261.00902 C 280.41892,261.00903 281.60002,260.32762 282.554,258.96481 C 283.51931,257.60201 284.00197,254.8764 284.00198,250.78797 C 284.00197,246.67685 283.51931,243.94556 282.554,242.59409 C 281.60002,241.24266 280.40757,240.56693 278.97663,240.56691 C 277.56839,240.56693 276.44407,241.16316 275.60368,242.35559 C 274.5475,243.87741 274.01941,246.6882 274.01942,250.78797"
         style="font-size:34.8878746px;font-style:normal;font-variant:normal;font-weight:normal;font-stretch:normal;fill:#ffffff;fill-opacity:1;stroke:none;stroke-width:1px;stroke-linecap:butt;stroke-linejoin:miter;stroke-opacity:1;font-family:Arial;-inkscape-font-specification:Arial"
         transform="scale(0.9370289,1.067203)" />
      <path
         id="text4150"
         d="M 276.73722,218.59547 L 273.6709,218.59547 L 273.6709,199.05622 C 272.9327,199.76036 271.96171,200.46447 270.7579,201.16857 C 269.56544,201.87271 268.49223,202.40079 267.53827,202.75284 L 267.53827,199.78873 C 269.25313,198.98242 270.75221,198.00574 272.03553,196.85869 C 273.31883,195.71169 274.22737,194.59873 274.76115,193.51981 L 276.73722,193.51981 L 276.73722,218.59547 M 284.60743,206.2791 C 284.60743,203.32637 284.90838,200.95281 285.51029,199.15843 C 286.12355,197.35273 287.02641,195.96153 288.21887,194.98483 C 289.42268,194.00818 290.93312,193.51984 292.75021,193.51981 C 294.09029,193.51984 295.26571,193.7924 296.27647,194.3375 C 297.28721,194.87129 298.12193,195.64922 298.78063,196.67131 C 299.4393,197.68208 299.95604,198.91996 300.33082,200.38496 C 300.70558,201.83864 300.89296,203.80335 300.89298,206.2791 C 300.89296,209.20915 300.59201,211.57702 299.99012,213.38274 C 299.3882,215.1771 298.48534,216.5683 297.28154,217.55633 C 296.08907,218.53301 294.57863,219.02135 292.75021,219.02135 C 290.34257,219.02135 288.45168,218.15824 287.07752,216.43202 C 285.43079,214.35374 284.60743,210.96944 284.60743,206.2791 M 287.75892,206.2791 C 287.75892,210.37889 288.2359,213.11018 289.18987,214.47298 C 290.15519,215.82443 291.34196,216.50016 292.75021,216.50016 C 294.15843,216.50016 295.33953,215.81876 296.29351,214.45595 C 297.25881,213.09314 297.74148,210.36753 297.74149,206.2791 C 297.74148,202.16798 297.25881,199.43669 296.29351,198.08522 C 295.33953,196.73379 294.14707,196.05807 292.71614,196.05804 C 291.30789,196.05807 290.18358,196.65429 289.34319,197.84673 C 288.28701,199.36855 287.75892,202.17934 287.75892,206.2791 M 304.02744,206.2791 C 304.02744,203.32637 304.32839,200.95281 304.9303,199.15843 C 305.54356,197.35273 306.44642,195.96153 307.63888,194.98483 C 308.84269,194.00818 310.35313,193.51984 312.17021,193.51981 C 313.5103,193.51984 314.68572,193.7924 315.69648,194.3375 C 316.70721,194.87129 317.54193,195.64922 318.20064,196.67131 C 318.85931,197.68208 319.37604,198.91996 319.75083,200.38496 C 320.12559,201.83864 320.31297,203.80335 320.31299,206.2791 C 320.31297,209.20915 320.01202,211.57702 319.41013,213.38274 C 318.80821,215.1771 317.90535,216.5683 316.70155,217.55633 C 315.50908,218.53301 313.99864,219.02135 312.17021,219.02135 C 309.76258,219.02135 307.87169,218.15824 306.49753,216.43202 C 304.8508,214.35374 304.02744,210.96944 304.02744,206.2791 M 307.17893,206.2791 C 307.17893,210.37889 307.65591,213.11018 308.60988,214.47298 C 309.5752,215.82443 310.76197,216.50016 312.17021,216.50016 C 313.57844,216.50016 314.75954,215.81876 315.71351,214.45595 C 316.67882,213.09314 317.16148,210.36753 317.1615,206.2791 C 317.16148,202.16798 316.67882,199.43669 315.71351,198.08522 C 314.75954,196.73379 313.56708,196.05807 312.13614,196.05804 C 310.7279,196.05807 309.60359,196.65429 308.7632,197.84673 C 307.70701,199.36855 307.17893,202.17934 307.17893,206.2791"
         style="font-size:34.8878746px;font-style:normal;font-variant:normal;font-weight:normal;font-stretch:normal;fill:#ffffff;fill-opacity:1;stroke:none;stroke-width:1px;stroke-linecap:butt;stroke-linejoin:miter;stroke-opacity:1;font-family:Arial;-inkscape-font-specification:Arial"
         transform="scale(0.9370289,1.067203)" />
      <path
         id="text4154"
         d="M 287.81993,147.49224 C 286.54797,147.02663 285.60537,146.36226 284.99211,145.49913 C 284.37884,144.63604 284.07221,143.60258 284.07221,142.39875 C 284.07221,140.58169 284.72522,139.05421 286.03125,137.81631 C 287.33727,136.57845 289.07484,135.95951 291.24399,135.95948 C 293.42447,135.95951 295.17908,136.59548 296.50783,137.86741 C 297.83655,139.12803 298.50092,140.66687 298.50094,142.48392 C 298.50092,143.64233 298.19429,144.65307 297.58104,145.51617 C 296.97912,146.36794 296.05923,147.02663 294.82136,147.49224 C 296.3545,147.99195 297.51856,148.79828 298.31355,149.91122 C 299.11986,151.02419 299.52303,152.35293 299.52304,153.89744 C 299.52303,156.03251 298.7678,157.82687 297.25738,159.28053 C 295.74692,160.73419 293.75949,161.46102 291.29509,161.46102 C 288.83067,161.46102 286.84325,160.73419 285.33281,159.28053 C 283.82236,157.81551 283.06714,155.99276 283.06714,153.81226 C 283.06714,152.18826 283.47598,150.83113 284.29367,149.74087 C 285.12271,148.63928 286.29813,147.88974 287.81993,147.49224 M 287.20667,142.29654 C 287.20666,143.47765 287.58711,144.44298 288.34802,145.1925 C 289.10891,145.94206 290.09695,146.31683 291.31213,146.31682 C 292.49322,146.31683 293.45854,145.94774 294.20809,145.20954 C 294.96898,144.46001 295.34943,143.54579 295.34945,142.46689 C 295.34943,141.34259 294.95762,140.39998 294.17402,139.63906 C 293.40175,138.86683 292.43643,138.4807 291.27806,138.48068 C 290.10831,138.4807 289.13731,138.85547 288.36506,139.60499 C 287.59279,140.35456 287.20666,141.25174 287.20667,142.29654 M 286.21863,153.8293 C 286.21863,154.70377 286.42305,155.54985 286.8319,156.36752 C 287.25209,157.18521 287.87103,157.82119 288.68872,158.27546 C 289.5064,158.71837 290.38655,158.93983 291.32916,158.93982 C 292.79417,158.93983 294.00366,158.46852 294.95764,157.52591 C 295.91159,156.58331 296.38857,155.38517 296.38859,153.93151 C 296.38857,152.45514 295.89455,151.23429 294.90653,150.26896 C 293.92984,149.30365 292.70332,148.82099 291.22695,148.82098 C 289.78464,148.82099 288.58651,149.29797 287.63255,150.25193 C 286.68993,151.2059 286.21863,152.39836 286.21863,153.8293 M 302.58936,148.71877 C 302.58936,145.76603 302.89031,143.39248 303.49222,141.5981 C 304.10548,139.7924 305.00834,138.4012 306.2008,137.4245 C 307.40461,136.44785 308.91505,135.95951 310.73214,135.95948 C 312.07222,135.95951 313.24764,136.23207 314.2584,136.77717 C 315.26914,137.31096 316.10386,138.08889 316.76256,139.11097 C 317.42123,140.12174 317.93797,141.35963 318.31275,142.82462 C 318.68751,144.2783 318.87489,146.24301 318.87491,148.71877 C 318.87489,151.64881 318.57394,154.01669 317.97205,155.8224 C 317.37013,157.61677 316.46727,159.00797 315.26347,159.996 C 314.071,160.97268 312.56056,161.46102 310.73214,161.46102 C 308.3245,161.46102 306.43361,160.59791 305.05945,158.87168 C 303.41272,156.79341 302.58936,153.4091 302.58936,148.71877 M 305.74085,148.71877 C 305.74085,152.81856 306.21783,155.54985 307.1718,156.91265 C 308.13712,158.2641 309.32389,158.93983 310.73214,158.93982 C 312.14036,158.93983 313.32146,158.25842 314.27544,156.89561 C 315.24074,155.53281 315.72341,152.8072 315.72342,148.71877 C 315.72341,144.60765 315.24074,141.87636 314.27544,140.52489 C 313.32146,139.17346 312.129,138.49773 310.69807,138.49771 C 309.28982,138.49773 308.16551,139.09396 307.32512,140.2864 C 306.26894,141.80822 305.74085,144.619 305.74085,148.71877"
         style="font-size:34.8878746px;font-style:normal;font-variant:normal;font-weight:normal;font-stretch:normal;fill:#ffffff;fill-opacity:1;stroke:none;stroke-width:1px;stroke-linecap:butt;stroke-linejoin:miter;stroke-opacity:1;font-family:Arial;-inkscape-font-specification:Arial"
         transform="scale(0.9370289,1.067203)" />
      <path
         id="text4158"
         d="M 277.2868,94.321891 L 274.23752,94.560382 C 273.96494,93.356588 273.57882,92.482121 273.07913,91.936977 C 272.25008,91.062531 271.22797,90.625298 270.01282,90.625275 C 269.03613,90.625298 268.1787,90.897859 267.44052,91.44296 C 266.47519,92.147098 265.71429,93.174881 265.15781,94.526312 C 264.60133,95.87778 264.31173,97.802744 264.28902,100.30121 C 265.02721,99.176907 265.93007,98.342188 266.9976,97.79705 C 268.06513,97.251943 269.18377,96.979382 270.35352,96.979366 C 272.39772,96.979382 274.13529,97.734604 275.56626,99.245033 C 277.00854,100.74413 277.7297,102.68613 277.72971,105.07104 C 277.7297,106.63827 277.38899,108.09761 276.70761,109.44906 C 276.03754,110.78915 275.11197,111.81693 273.93089,112.53241 C 272.74977,113.24788 271.40968,113.60562 269.91061,113.60562 C 267.35533,113.60562 265.27138,112.66869 263.65873,110.79483 C 262.04607,108.90961 261.23974,105.80923 261.23974,101.49367 C 261.23974,96.667072 262.13124,93.157846 263.91425,90.965977 C 265.47012,89.05807 267.56543,88.104106 270.2002,88.104081 C 272.1649,88.104106 273.77188,88.654907 275.02113,89.756485 C 276.28171,90.85811 277.03694,92.379911 277.2868,94.321891 M 264.76601,105.08807 C 264.766,106.14425 264.98746,107.155 265.43038,108.12032 C 265.88464,109.08564 266.51494,109.82383 267.32127,110.33488 C 268.12759,110.83458 268.97367,111.08443 269.8595,111.08442 C 271.15416,111.08443 272.26711,110.56202 273.19838,109.5172 C 274.12962,108.47238 274.59524,107.05279 274.59526,105.25842 C 274.59524,103.53221 274.13529,102.17508 273.21541,101.18703 C 272.29551,100.18765 271.13712,99.687959 269.74025,99.687946 C 268.35472,99.687959 267.1793,100.18765 266.21399,101.18703 C 265.24866,102.17508 264.766,103.47542 264.76601,105.08807 M 280.79603,100.86337 C 280.79603,97.910633 281.09698,95.537078 281.69889,93.742697 C 282.31215,91.936999 283.21501,90.545801 284.40747,89.569099 C 285.61128,88.592445 287.12172,88.104106 288.93881,88.104081 C 290.27889,88.104106 291.45431,88.376667 292.46507,88.921766 C 293.47581,89.455556 294.31052,90.233491 294.96923,91.255574 C 295.6279,92.266343 296.14463,93.504226 296.51942,94.969224 C 296.89418,96.422903 297.08156,98.387615 297.08158,100.86337 C 297.08156,103.79341 296.78061,106.16129 296.17872,107.967 C 295.5768,109.76137 294.67394,111.15257 293.47014,112.1406 C 292.27767,113.11728 290.76723,113.60562 288.93881,113.60562 C 286.53117,113.60562 284.64028,112.74251 283.26612,111.01628 C 281.61939,108.93801 280.79603,105.5537 280.79603,100.86337 M 283.94752,100.86337 C 283.94752,104.96315 284.4245,107.69445 285.37847,109.05725 C 286.34379,110.4087 287.53056,111.08443 288.93881,111.08442 C 290.34703,111.08443 291.52813,110.40302 292.48211,109.04021 C 293.44741,107.67741 293.93007,104.9518 293.93009,100.86337 C 293.93007,96.752247 293.44741,94.020957 292.48211,92.669487 C 291.52813,91.318057 290.33567,90.642333 288.90474,90.64231 C 287.49649,90.642333 286.37218,91.23856 285.53179,92.430995 C 284.47561,93.952816 283.94752,96.763604 283.94752,100.86337"
         style="font-size:34.8878746px;font-style:normal;font-variant:normal;font-weight:normal;font-stretch:normal;fill:#ffffff;fill-opacity:1;stroke:none;stroke-width:1px;stroke-linecap:butt;stroke-linejoin:miter;stroke-opacity:1;font-family:Arial;-inkscape-font-specification:Arial"
         transform="scale(0.9370289,1.067203)" />
      <path
         id="text4162"
         d="M 237.66461,80.383736 L 237.66461,74.404417 L 226.83029,74.404417 L 226.83029,71.593627 L 238.22677,55.410286 L 240.73092,55.410286 L 240.73092,71.593627 L 244.10387,71.593627 L 244.10387,74.404417 L 240.73092,74.404417 L 240.73092,80.383736 L 237.66461,80.383736 M 237.66461,71.593627 L 237.66461,60.333429 L 229.8455,71.593627 L 237.66461,71.593627 M 247.25537,68.067362 C 247.25536,65.114627 247.55632,62.741073 248.15823,60.946692 C 248.77149,59.140993 249.67435,57.749795 250.86681,56.773094 C 252.07061,55.79644 253.58106,55.308101 255.39814,55.308076 C 256.73822,55.308101 257.91364,55.580662 258.92441,56.12576 C 259.93514,56.65955 260.76986,57.437486 261.42856,58.459568 C 262.08724,59.470338 262.60397,60.708221 262.97876,62.173219 C 263.35351,63.626897 263.5409,65.59161 263.54092,68.067362 C 263.5409,70.997408 263.23995,73.365284 262.63806,75.170997 C 262.03613,76.965363 261.13327,78.356561 259.92948,79.344595 C 258.73701,80.321274 257.22656,80.809613 255.39814,80.809613 C 252.99051,80.809613 251.09961,79.946502 249.72545,78.220279 C 248.07873,76.142001 247.25536,72.757699 247.25537,68.067362 M 250.40686,68.067362 C 250.40685,72.16715 250.88384,74.898441 251.83781,76.261243 C 252.80312,77.612696 253.9899,78.288421 255.39814,78.288419 C 256.80636,78.288421 257.98746,77.607018 258.94144,76.244208 C 259.90675,74.881405 260.38941,72.155793 260.38942,68.067362 C 260.38941,63.956242 259.90675,61.224951 258.94144,59.873481 C 257.98746,58.522052 256.79501,57.846327 255.36407,57.846305 C 253.95583,57.846327 252.83151,58.442555 251.99112,59.63499 C 250.93494,61.156811 250.40685,63.967599 250.40686,68.067362"
         style="font-size:34.8878746px;font-style:normal;font-variant:normal;font-weight:normal;font-stretch:normal;fill:#ffffff;fill-opacity:1;stroke:none;stroke-width:1px;stroke-linecap:butt;stroke-linejoin:miter;stroke-opacity:1;font-family:Arial;-inkscape-font-specification:Arial"
         transform="scale(0.9370289,1.067203)" />
      <path
         id="text4166"
         d="M 137.23022,79.8195 L 137.23022,82.766571 L 120.72321,82.766571 C 120.7005,82.028384 120.81974,81.318589 121.08095,80.637184 C 121.50115,79.512871 122.17119,78.405591 123.09109,77.315341 C 124.02234,76.225101 125.36243,74.964505 127.11137,73.53355 C 129.82562,71.307642 131.65973,69.547351 132.61371,68.25267 C 133.56766,66.946662 134.04464,65.714458 134.04466,64.556054 C 134.04464,63.340904 133.60741,62.318799 132.73296,61.489737 C 131.86983,60.649361 130.73984,60.229163 129.34297,60.22914 C 127.86659,60.229163 126.68549,60.672075 125.79967,61.557878 C 124.91384,62.443723 124.46525,63.670249 124.4539,65.237458 L 121.30241,64.913791 C 121.51818,62.562969 122.33019,60.774285 123.73843,59.547737 C 125.14665,58.309877 127.03755,57.690936 129.41111,57.690911 C 131.80737,57.690936 133.70394,58.355304 135.10083,59.684017 C 136.4977,61.012776 137.19613,62.659501 137.19615,64.624195 C 137.19613,65.623604 136.99171,66.60596 136.58289,67.571266 C 136.17403,68.536603 135.49263,69.553029 134.53868,70.620548 C 133.59605,71.688092 132.02315,73.153109 129.81995,75.015603 C 127.98016,76.560124 126.79906,77.610621 126.27665,78.167095 C 125.75424,78.712222 125.32268,79.263023 124.98199,79.8195 L 137.23022,79.8195 M 150.36428,82.766571 L 150.36428,76.787253 L 139.52996,76.787253 L 139.52996,73.976462 L 150.92644,57.793122 L 153.4306,57.793122 L 153.4306,73.976462 L 156.80354,73.976462 L 156.80354,76.787253 L 153.4306,76.787253 L 153.4306,82.766571 L 150.36428,82.766571 M 150.36428,73.976462 L 150.36428,62.716264 L 142.54517,73.976462 L 150.36428,73.976462 M 159.95504,70.450197 C 159.95504,67.497463 160.25599,65.123909 160.8579,63.329528 C 161.47116,61.523829 162.37402,60.132631 163.56648,59.155929 C 164.77028,58.179275 166.28073,57.690936 168.09781,57.690911 C 169.4379,57.690936 170.61332,57.963497 171.62408,58.508596 C 172.63481,59.042386 173.46953,59.820321 174.12824,60.842404 C 174.78691,61.853174 175.30364,63.091056 175.67843,64.556054 C 176.05318,66.009733 176.24057,67.974445 176.24059,70.450197 C 176.24057,73.380243 175.93962,75.748119 175.33773,77.553832 C 174.7358,79.348199 173.83295,80.739397 172.62915,81.72743 C 171.43668,82.704109 169.92623,83.192448 168.09781,83.192448 C 165.69018,83.192448 163.79928,82.329337 162.42513,80.603114 C 160.7784,78.524837 159.95504,75.140534 159.95504,70.450197 M 163.10653,70.450197 C 163.10652,74.549985 163.58351,77.281276 164.53748,78.644078 C 165.50279,79.995532 166.68957,80.671256 168.09781,80.671254 C 169.50604,80.671256 170.68713,79.989853 171.64111,78.627043 C 172.60642,77.264241 173.08908,74.538628 173.08909,70.450197 C 173.08908,66.339078 172.60642,63.607787 171.64111,62.256317 C 170.68713,60.904888 169.49468,60.229163 168.06374,60.22914 C 166.6555,60.229163 165.53118,60.825391 164.69079,62.017825 C 163.63461,63.539646 163.10652,66.350434 163.10653,70.450197"
         style="font-size:34.8878746px;font-style:normal;font-variant:normal;font-weight:normal;font-stretch:normal;fill:#ffffff;fill-opacity:1;stroke:none;stroke-width:1px;stroke-linecap:butt;stroke-linejoin:miter;stroke-opacity:1;font-family:Arial;-inkscape-font-specification:Arial"
         transform="scale(0.9370289,1.067203)" />
    </g>
  </g>
</svg>
